<svg version="1.1" id="Layer_1" xmlns="http://www.w3.org/2000/svg" xmlns:xlink="http://www.w3.org/1999/xlink" x="0px" y="0px"
	 width="100%" viewBox="0 0 704 624" enable-background="new 0 0 704 624" xml:space="preserve">
<path fill="#000000" opacity="1.000000" stroke="none" 
	d="
M240.866730,320.361572 
	C241.439056,316.788696 243.231583,314.929230 246.413574,314.307983 
	C250.396713,313.530273 249.630447,310.349457 249.751480,307.569641 
	C249.869675,304.855438 249.514496,303.009247 246.259842,302.011230 
	C240.428299,300.223053 238.454834,291.458038 243.013138,287.359161 
	C245.575836,285.054749 246.032578,283.195801 244.975861,280.065765 
	C237.095749,256.724274 229.369263,233.330933 221.599319,209.952286 
	C220.313873,206.084503 218.699326,202.888809 214.323944,201.174286 
	C208.472000,198.881180 206.560822,193.009689 209.015442,187.551712 
	C211.468658,182.096848 217.766205,179.879532 223.396851,182.488113 
	C228.524780,184.863800 230.865799,190.490311 228.065674,195.908630 
	C225.843918,200.207840 226.665955,203.076004 229.498810,206.618942 
	C240.110245,219.890182 250.423447,233.399750 260.870117,246.803070 
	C261.770508,247.958298 262.830139,248.989426 264.021362,250.305298 
	C267.004181,247.723373 268.912750,243.836151 273.298859,243.976730 
	C277.399994,244.108185 279.681488,247.085938 282.089020,250.635956 
	C286.130280,245.825119 286.500977,240.175888 288.282379,235.175446 
	C288.859680,233.554977 286.485779,233.077774 285.372681,232.184753 
	C278.347656,226.548782 277.783447,215.941727 284.226868,210.219727 
	C287.985107,206.882263 293.141541,206.850571 295.775757,210.300720 
	C297.471039,212.521133 298.489014,214.815918 294.471130,215.849091 
	C292.515656,216.351959 290.854858,217.230637 292.096344,219.677200 
	C293.327301,222.102982 295.244965,221.775055 297.155762,220.589401 
	C301.528442,217.876190 305.864990,215.104721 310.193085,212.371536 
	C310.301971,209.696594 308.306091,208.056473 307.523987,205.905090 
	C305.785400,201.122620 306.713928,197.031296 310.247986,193.555893 
	C312.799408,191.046829 315.912598,190.864655 319.050629,192.326782 
	C323.690125,194.488556 324.545532,198.472214 324.380493,203.170349 
	C324.278229,206.081879 320.950287,209.036102 323.377869,211.542114 
	C325.328491,213.555710 328.607788,214.286911 331.308197,215.564545 
	C331.742889,215.770233 332.233459,215.857758 333.063660,216.111694 
	C334.245026,211.766724 335.886963,207.662415 339.236542,204.924820 
	C339.469421,203.191864 338.376587,202.507950 337.665283,201.635895 
	C332.475311,195.273209 332.310516,192.119904 337.610992,185.847412 
	C339.532013,183.574158 339.492767,181.997391 337.781586,179.820511 
	C334.598206,175.770737 335.015930,171.657242 338.544220,168.140518 
	C340.536560,166.154755 340.366974,164.714493 338.965393,162.569260 
	C336.458923,158.732925 337.374939,155.228134 340.830872,152.434158 
	C343.683258,150.128113 346.706879,150.225723 349.480652,152.595001 
	C352.912018,155.526031 353.478333,159.179993 350.948700,162.821548 
	C349.463440,164.959686 349.740143,166.244949 351.374298,167.954025 
	C355.170502,171.924301 355.268921,176.194000 352.008118,180.579147 
	C351.101776,181.798004 350.424011,182.817993 351.423065,184.574783 
	C357.314056,194.933929 357.256195,194.966843 350.143921,204.519104 
	C353.569000,207.505127 356.039825,211.155304 356.617188,216.302032 
	C360.559082,214.602768 364.132477,213.062332 368.045441,211.375534 
	C365.388947,204.699860 362.759430,197.837769 370.362732,192.716217 
	C373.610168,190.528763 377.270935,190.998230 379.987610,193.814240 
	C385.812500,199.852081 383.270477,206.012772 379.351318,212.217316 
	C383.853088,215.097488 388.134613,217.876221 392.459198,220.586319 
	C394.520142,221.877884 396.876312,222.252182 398.045563,219.750443 
	C399.472870,216.696716 396.602509,216.313828 394.654877,215.540100 
	C394.062500,215.304764 393.473969,215.059891 392.939148,214.841980 
	C393.582794,209.088516 397.111206,206.670441 402.127686,208.301895 
	C407.018036,209.892319 409.208984,213.762390 410.059814,218.356125 
	C410.995026,223.405533 409.618530,227.969849 405.584259,231.420700 
	C404.214294,232.592529 402.628540,233.512115 400.648346,234.890076 
	C403.925293,239.487228 403.898254,245.483109 407.521088,250.364838 
	C410.742065,247.805618 412.541534,243.788757 417.013611,244.016876 
	C421.129791,244.226868 423.227814,247.371552 425.722473,250.885712 
	C430.669525,244.610001 435.190247,238.907028 439.676239,233.176880 
	C446.761780,224.126129 453.738098,214.988022 460.943726,206.034241 
	C463.396118,202.986862 464.187439,200.422592 462.190826,196.621460 
	C459.153381,190.838867 461.449066,184.622940 466.770844,182.302872 
	C471.935608,180.051254 478.186066,182.096237 480.646576,186.842682 
	C483.676483,192.687637 481.876068,198.362900 475.459503,201.292023 
	C471.771820,202.975433 469.810364,205.400757 468.579590,209.155380 
	C461.061646,232.089355 453.399597,254.976303 445.710693,277.853760 
	C444.443268,281.624786 443.530548,284.648834 447.411896,288.009064 
	C451.509155,291.556122 449.131378,300.526031 443.930542,301.945068 
	C439.974792,303.024414 440.337677,305.459503 440.255554,308.363495 
	C440.167755,311.466705 440.404694,313.888977 444.189331,314.630646 
	C449.265961,315.625580 449.233612,319.801880 449.053009,323.677979 
	C448.864044,327.732819 447.106262,330.754944 442.530975,331.057556 
	C440.704712,331.178345 438.867828,331.167236 437.035767,331.167206 
	C375.213684,331.165985 313.391571,331.160156 251.569489,331.151184 
	C242.732086,331.149902 241.092834,329.559601 240.866730,320.361572 
M280.583740,271.894135 
	C281.953735,273.224457 282.501038,275.421234 284.985504,275.985229 
	C287.331604,271.639221 289.421326,266.749268 295.621246,267.126343 
	C302.406097,267.539001 304.252167,272.875671 305.923279,278.216583 
	C312.019623,274.479980 312.695282,269.291077 307.989685,264.671021 
	C306.386871,263.097351 303.751038,261.820923 305.158173,259.000183 
	C306.443542,256.423462 309.032288,255.388107 311.826385,255.318481 
	C316.977783,255.190140 321.895386,260.280945 322.289917,266.123291 
	C322.487000,269.042389 322.410553,271.975952 321.588989,275.170685 
	C335.325806,268.399628 341.347198,246.548798 333.217743,234.695709 
	C331.270844,231.857025 328.666351,229.910004 325.384399,228.814270 
	C322.889954,227.981430 320.765320,228.791107 318.864227,230.240280 
	C317.217957,231.495239 316.684570,233.314468 317.924072,235.083984 
	C319.256744,236.986511 320.783600,236.141663 322.142822,234.901794 
	C324.959137,232.332779 326.460205,233.678787 327.590027,236.628418 
	C329.254028,240.972626 327.945953,246.011276 324.185211,249.269775 
	C320.328369,252.611572 316.375366,252.841110 311.841614,250.039154 
	C310.470825,249.191986 309.409851,247.718353 307.503601,247.789246 
	C305.778381,248.981598 305.127533,250.943146 304.148163,252.642258 
	C300.058228,259.737854 293.785980,262.557098 286.018677,260.879089 
	C280.956085,259.785370 278.244385,261.762482 275.800659,265.709351 
	C277.334076,267.681030 278.755890,269.509216 280.583740,271.894135 
M404.231323,274.739746 
	C405.219513,276.585632 406.247253,276.032593 407.249084,274.768219 
	C409.611450,271.786774 411.958069,268.792847 414.399994,265.691040 
	C412.044586,262.790070 410.533356,259.639313 405.890076,260.978455 
	C397.500702,263.398010 391.594727,260.987946 386.672302,253.655441 
	C385.216858,251.487366 383.897736,249.227768 382.387085,246.802963 
	C380.917938,248.003479 379.846802,249.031387 378.631836,249.844330 
	C374.113831,252.867386 369.923492,252.625656 365.811493,249.200119 
	C361.842102,245.893387 360.572388,240.731522 362.440033,236.114044 
	C363.490814,233.516129 364.926727,232.686356 367.357697,234.475586 
	C368.616699,235.402237 369.585785,237.263443 371.596680,236.022827 
	C372.757477,235.306656 372.766998,234.074387 372.634308,232.893707 
	C372.399994,230.809082 371.081482,229.628250 369.157623,229.119202 
	C364.392029,227.858307 360.642792,229.661926 357.779449,233.341278 
	C348.472290,245.300888 354.117035,268.200684 368.466064,275.033142 
	C367.400726,271.853790 367.421143,268.900635 367.710236,265.977295 
	C368.356689,259.440491 373.741211,254.675339 379.372101,255.572403 
	C381.961945,255.985016 384.307831,257.150299 385.161285,259.717377 
	C385.999359,262.238129 383.544983,263.028778 381.976685,264.141235 
	C379.183655,266.122437 378.485260,268.798248 379.143860,272.027588 
	C379.710205,274.804657 380.271484,277.523712 384.099884,278.293884 
	C385.750641,272.665497 387.841614,267.372284 394.638275,267.215240 
	C399.333679,267.106720 402.382935,269.777161 404.231323,274.739746 
M357.014618,285.119385 
	C360.117126,285.380157 363.246155,285.979431 366.613647,284.265991 
	C361.303925,280.754791 355.953979,282.405640 350.658234,283.379700 
	C347.791718,278.118286 352.381622,275.813385 354.919983,272.326965 
	C350.372559,267.383728 347.814911,261.333221 344.948181,254.637085 
	C342.854645,259.890900 341.401642,264.533447 338.234589,268.240326 
	C335.751831,271.146240 334.429962,273.624115 338.774811,276.181427 
	C340.866364,277.412476 341.060486,279.902313 340.053162,282.005524 
	C338.885925,284.442657 336.981110,282.784180 335.291901,282.503235 
	C330.691254,281.738129 326.210022,281.835327 321.799072,284.981110 
	C327.962952,285.923096 333.560944,284.807129 339.167603,284.933014 
	C344.813141,285.059814 350.461700,285.049561 357.014618,285.119385 
M343.520264,302.833771 
	C340.384735,302.674652 337.280609,302.344696 334.117828,302.989105 
	C331.033325,303.617584 329.298096,305.199615 329.382111,308.341522 
	C329.472839,311.734467 331.527985,313.548615 334.785736,313.608948 
	C341.584442,313.734863 348.389801,313.743439 355.187225,313.581390 
	C358.109528,313.511780 360.291534,311.986359 360.592743,308.799591 
	C360.921112,305.325195 358.873016,303.691101 355.746033,302.977631 
	C351.962433,302.114349 348.173950,302.224518 343.520264,302.833771 
M412.319336,313.697083 
	C413.815002,313.681396 415.316864,313.746674 416.805115,313.633606 
	C420.130341,313.380981 422.575592,312.070831 422.758698,308.284271 
	C422.935425,304.630402 420.551300,303.231354 417.530792,302.808197 
	C412.258270,302.069550 406.931702,302.152802 401.657867,302.790588 
	C398.402161,303.184357 395.959503,304.757599 396.249786,308.626709 
	C396.536591,312.449036 399.048096,313.607666 402.406799,313.663818 
	C405.396271,313.713837 408.386810,313.701660 412.319336,313.697083 
M267.386444,306.861481 
	C266.829285,310.733521 268.661957,313.235992 272.353119,313.489594 
	C277.812073,313.864624 283.327240,313.788452 288.796631,313.496094 
	C291.667725,313.342651 293.728607,311.585449 293.839447,308.332092 
	C293.950195,305.082001 292.243958,303.468384 289.146271,303.002167 
	C283.347687,302.129517 277.563812,302.094482 271.770630,303.055511 
	C269.823761,303.378479 268.334839,304.228699 267.386444,306.861481 
M318.596802,305.690918 
	C310.982239,302.050781 307.484833,302.791901 304.130707,308.756317 
	C310.021088,313.728271 315.083069,314.232483 319.621613,310.478058 
	C321.848938,308.635529 321.572296,307.311829 318.596802,305.690918 
M375.263519,303.663635 
	C372.773895,304.849274 370.192108,305.917969 368.668274,308.412354 
	C375.188019,314.588348 380.510803,314.437592 385.974945,307.957855 
	C383.009644,305.587280 380.294830,302.863342 375.263519,303.663635 
M341.968567,228.124634 
	C342.826874,230.155060 343.295197,232.410995 345.349060,234.394836 
	C346.685822,231.473389 347.981995,229.091675 348.258331,225.711227 
	C345.983551,226.696182 343.516663,225.061600 341.968567,228.124634 
z"/>
<path fill="#000000" opacity="1.000000" stroke="none" 
	d="
M338.004913,38.074669 
	C279.845398,39.566479 227.523605,57.145386 181.348206,91.610641 
	C124.370293,134.138870 88.957314,190.765869 74.682449,260.391541 
	C69.270157,286.789978 68.497055,313.543640 71.231216,340.368561 
	C71.736496,345.325806 72.386208,350.268250 72.950943,355.219604 
	C73.151764,356.980255 73.995003,359.259827 71.484276,359.815399 
	C68.750534,360.420319 68.891235,357.974365 68.613808,356.216614 
	C67.083092,346.518402 66.023575,336.786865 65.624123,326.957458 
	C64.289391,294.113312 67.538742,261.831268 77.573273,230.443649 
	C100.076759,160.053680 143.466629,106.262688 207.419693,69.414841 
	C239.031738,51.200928 273.174561,39.878441 309.562378,35.541878 
	C373.967651,27.866308 434.462067,39.777073 489.706360,73.724373 
	C559.397278,116.549065 602.741882,178.537399 619.433594,258.849518 
	C625.308716,287.117615 625.809265,315.630829 623.174500,344.268127 
	C622.809692,348.233276 621.954468,352.151825 621.379272,356.099701 
	C621.114441,357.917969 620.616821,359.556732 618.334351,359.003754 
	C616.251282,358.499146 616.785706,356.683563 617.029602,355.278809 
	C620.178406,337.139771 620.338318,318.853363 619.808655,300.530273 
	C618.859619,267.696533 611.434082,236.262466 598.721985,206.101135 
	C580.980774,164.007278 554.231079,128.512405 518.959534,99.511459 
	C482.687469,69.687866 441.164856,51.142883 395.148865,42.320629 
	C376.415955,38.729115 357.527893,37.586769 338.004913,38.074669 
z"/>
<path fill="#000000" opacity="1.000000" stroke="none" 
	d="
M596.222534,436.100647 
	C567.090454,494.335205 523.496887,537.510376 465.193481,565.605774 
	C438.029510,578.695618 409.375549,586.922485 379.333862,590.484375 
	C344.412750,594.624817 309.830231,592.905518 275.864685,584.131531 
	C225.599060,571.146912 181.996140,546.205933 145.435791,509.097046 
	C120.319466,483.603851 101.110962,454.255615 87.124825,421.421112 
	C86.133759,419.094391 82.872330,415.481628 85.861443,414.028137 
	C89.871979,412.077911 90.082191,417.220673 91.089035,419.576416 
	C113.548454,472.126312 148.815659,513.965027 196.672287,544.993591 
	C229.657043,566.379700 265.773804,580.220032 304.794586,585.431824 
	C363.822296,593.315735 420.346497,584.884949 473.211853,556.660156 
	C531.674805,525.446777 573.569519,478.899689 599.630676,418.019562 
	C600.606567,415.739838 600.952209,412.569336 605.480347,413.368622 
	C603.860229,421.541687 599.526917,428.428619 596.222534,436.100647 
z"/>
<path fill="#000000" opacity="1.000000" stroke="none" 
	d="
M281.982178,371.931793 
	C280.815002,369.384705 277.638214,367.531708 280.274658,364.634186 
	C281.863007,362.888489 288.500549,363.427826 290.610535,365.293549 
	C291.707916,366.263885 292.216553,367.864044 294.292023,368.440186 
	C296.895813,365.114624 300.247314,362.742920 305.079590,363.708374 
	C308.574280,364.406555 309.803894,365.960144 307.761200,369.228149 
	C307.496552,369.651581 307.223419,370.069672 306.958496,370.492920 
	C300.134674,381.395447 300.545319,384.287750 310.386993,394.104218 
	C312.913910,393.102448 313.695099,390.552002 315.020752,388.552948 
	C319.528809,381.754974 323.915497,374.876404 328.336304,368.020721 
	C329.719116,365.876373 331.177002,363.755585 334.064758,363.773376 
	C336.629822,363.789185 339.767059,362.714661 341.356201,365.578857 
	C342.745605,368.083099 340.272064,369.877808 339.082550,371.739929 
	C332.182190,382.542358 325.209808,393.299103 318.208099,404.036255 
	C314.125153,410.297516 307.080750,410.332153 302.889954,404.148468 
	C300.104156,400.037903 297.386383,395.881287 294.007568,390.796265 
	C290.761383,395.712494 287.983459,399.941803 285.182678,404.155945 
	C281.116669,410.273895 273.906952,410.258270 269.901123,404.108765 
	C262.994629,393.506439 256.026672,382.942291 249.287460,372.234406 
	C247.890320,370.014496 244.312012,367.688049 247.623047,364.536377 
	C250.064865,362.212067 256.960236,363.797150 259.114471,367.058533 
	C263.610382,373.865082 267.893219,380.812469 272.393494,387.616028 
	C273.905945,389.902618 274.856750,392.721313 277.792664,394.221771 
	C281.223450,390.704193 283.369293,386.370117 286.000458,382.388275 
	C287.372314,380.312164 286.218140,378.587006 285.132019,376.874390 
	C284.151184,375.327759 283.166992,373.783234 281.982178,371.931793 
z"/>
<path fill="#000000" opacity="1.000000" stroke="none" 
	d="
M203.147888,409.151489 
	C200.523010,408.961029 198.348633,408.925842 196.234741,408.550323 
	C190.278000,407.492065 187.376389,404.719757 186.623108,398.783600 
	C185.510666,390.017090 186.411560,381.204102 186.847641,372.441254 
	C187.097290,367.424377 191.704330,363.876221 197.453583,363.773254 
	C208.752228,363.570984 220.062454,363.517090 231.357635,363.804749 
	C238.329559,363.982330 242.223541,368.388092 242.319702,375.425842 
	C242.417313,382.571716 242.414795,389.721130 242.315414,396.867004 
	C242.215897,404.022705 239.243408,407.469604 231.997116,408.534180 
	C222.581253,409.917389 213.082321,408.836670 203.147888,409.151489 
M200.138794,397.813721 
	C208.946106,397.884369 217.753830,397.923767 226.560471,398.043793 
	C229.386322,398.082336 231.015686,396.979767 231.022186,394.020294 
	C231.033508,388.868225 231.030701,383.716003 231.005249,378.563995 
	C230.991455,375.771088 229.743851,374.283905 226.752121,374.308746 
	C218.441177,374.377808 210.128952,374.379059 201.817947,374.315277 
	C198.619354,374.290710 197.318695,375.809937 197.352264,378.887848 
	C197.404831,383.708008 197.362839,388.529175 197.358978,393.349915 
	C197.357605,395.059296 197.474396,396.711884 200.138794,397.813721 
z"/>
<path fill="#000000" opacity="1.000000" stroke="none" 
	d="
M625.616699,373.038971 
	C618.265808,380.410614 609.608887,385.504944 601.802307,391.697235 
	C599.641296,393.411407 597.405762,395.031677 595.516113,397.864349 
	C603.594299,397.864349 611.672791,397.904419 619.750549,397.847015 
	C623.635559,397.819397 626.190002,398.976196 626.211182,403.471436 
	C626.226624,406.737823 624.900757,408.692139 621.635681,408.713959 
	C607.648254,408.807465 593.659851,408.806763 579.672119,408.752441 
	C577.611145,408.744446 575.558655,408.074127 575.092102,405.671356 
	C574.433533,402.279144 574.532166,399.060333 577.745117,396.695557 
	C586.327454,390.378754 594.856018,383.988892 603.406799,377.629211 
	C604.456787,376.848358 605.511902,376.074432 607.858521,374.342041 
	C597.688416,374.342041 588.959717,374.414276 580.233154,374.310913 
	C576.009216,374.260864 574.281677,371.953156 574.999634,367.859741 
	C575.466858,365.196259 576.898621,363.713409 579.720398,363.715881 
	C593.545044,363.728058 607.370850,363.619324 621.193665,363.775696 
	C625.679993,363.826447 626.569092,365.872528 625.616699,373.038971 
z"/>
<path fill="#000000" opacity="1.000000" stroke="none" 
	d="
M368.773895,375.217102 
	C375.091187,381.100586 381.151520,386.742157 387.166138,392.341187 
	C389.376312,390.814178 388.618011,388.993988 388.643738,387.480591 
	C388.751221,381.158173 388.709961,374.833191 388.714508,368.509125 
	C388.717163,364.812836 390.837189,363.684509 394.200958,363.670319 
	C397.594086,363.656006 400.253082,364.324921 400.258972,368.436859 
	C400.275909,380.252686 400.270233,392.068604 400.258789,403.884460 
	C400.256897,405.829529 399.791504,407.685211 397.673035,408.238525 
	C393.868530,409.232147 390.048248,409.529663 386.847198,406.571594 
	C380.493408,400.700012 374.195251,394.768341 367.858704,388.878082 
	C364.705383,385.946808 361.517914,383.052246 358.199463,380.006683 
	C356.390442,381.657043 357.012329,383.570953 356.950073,385.242889 
	C356.715088,391.557800 356.501099,397.876038 356.451447,404.194366 
	C356.420197,408.166504 353.931335,408.827606 350.817535,408.793671 
	C347.826630,408.761108 345.635437,407.853027 345.652039,404.230927 
	C345.706940,392.248596 345.675140,380.265900 345.671936,368.283325 
	C345.671478,366.541534 345.854218,364.651093 347.803009,364.229736 
	C351.368164,363.458771 355.104980,362.741180 358.235107,365.509644 
	C361.723877,368.595337 365.094757,371.814270 368.773895,375.217102 
z"/>
<path fill="#000000" opacity="1.000000" stroke="none" 
	d="
M92.000252,363.682098 
	C97.997704,363.691498 103.501694,363.538910 108.991379,363.753143 
	C115.487579,364.006561 118.908745,367.383636 119.256027,373.514313 
	C117.175896,374.931610 114.781586,374.263214 112.534302,374.279327 
	C101.872589,374.355835 91.208534,374.417450 80.548584,374.261261 
	C76.706322,374.204987 75.064850,375.527832 75.277115,379.486847 
	C75.508675,383.805847 75.530388,388.159698 75.264397,392.475006 
	C75.007286,396.646301 76.726875,398.102875 80.774063,398.052246 
	C91.601082,397.916779 102.431236,397.996796 113.259834,398.052399 
	C115.365303,398.063202 117.623077,397.613525 119.599892,399.418030 
	C119.390640,404.390869 116.632111,407.638245 111.884392,408.237976 
	C98.636345,409.911469 85.308212,409.916687 72.067696,408.165314 
	C67.213737,407.523224 64.199318,403.377289 63.948479,397.514130 
	C63.628338,390.031311 63.589455,382.513214 63.923298,375.032349 
	C64.239746,367.941223 68.818436,363.875519 76.007568,363.709900 
	C81.169334,363.590973 86.335983,363.683960 92.000252,363.682098 
z"/>
<path fill="#000000" opacity="1.000000" stroke="none" 
	d="
M164.458252,386.796875 
	C170.056747,385.560211 168.323318,381.545746 168.212769,378.316345 
	C168.090149,374.734467 165.618546,374.297791 162.620865,374.326599 
	C152.309769,374.425720 141.996796,374.318268 131.685272,374.392273 
	C128.648758,374.414062 126.501015,373.972778 126.649406,370.127380 
	C126.783348,366.656403 127.085625,363.695007 131.583481,363.708588 
	C143.558075,363.744690 155.539474,363.520111 167.504974,363.861847 
	C175.366013,364.086334 178.599777,367.654694 179.505478,375.637390 
	C179.599182,376.463196 179.813843,377.285889 179.814240,378.110077 
	C179.818222,386.295319 181.040665,395.101868 169.667633,397.385223 
	C171.502121,401.865448 175.689148,403.696472 177.859848,407.190674 
	C173.785370,409.683289 164.853424,409.831635 161.928223,407.134186 
	C155.940948,401.613068 150.182236,395.843658 144.352432,390.152893 
	C143.777328,389.591522 143.194611,388.934174 143.832077,386.817505 
	C150.280396,386.817505 157.151337,386.817505 164.458252,386.796875 
z"/>
<path fill="#000000" opacity="1.000000" stroke="none" 
	d="
M510.768921,408.818848 
	C506.392242,409.366608 503.885986,407.543762 501.805176,404.222656 
	C496.256439,395.366516 490.447449,386.673431 484.770111,377.958801 
	C482.301636,378.437378 481.802216,380.382263 480.865387,381.824188 
	C475.975159,389.351196 471.148224,396.919312 466.294373,404.469971 
	C465.021240,406.450439 463.714996,408.378967 461.053131,408.645081 
	C458.405029,408.909851 455.402222,409.628906 453.557373,407.322021 
	C451.499756,404.749054 454.167816,402.714081 455.424194,400.745636 
	C462.220825,390.096588 469.085693,379.490601 475.993256,368.912994 
	C480.869049,361.446625 487.236298,361.395599 492.014618,368.744659 
	C499.263458,379.893311 506.463409,391.073700 513.702209,402.228882 
	C515.898682,405.613678 516.095703,408.167450 510.768921,408.818848 
z"/>
<path fill="#000000" opacity="1.000000" stroke="none" 
	d="
M412.239471,380.704712 
	C409.678589,376.774750 407.214172,373.209442 404.982635,369.503876 
	C402.770660,365.830841 403.830200,364.119720 408.166534,363.697449 
	C412.165833,363.308044 415.144104,364.414642 417.378815,368.090576 
	C421.873566,375.484131 426.699249,382.677338 431.433228,389.923950 
	C432.416962,391.429810 433.146912,393.176544 434.923798,394.196198 
	C437.153107,393.699768 437.737213,391.562012 438.777893,389.994141 
	C443.656433,382.644165 448.423218,375.219940 453.219788,367.815674 
	C454.220947,366.270233 455.140656,364.439880 457.050385,364.085419 
	C459.947144,363.547668 463.320251,362.610535 465.536377,365.135773 
	C467.710510,367.613220 465.051361,369.804718 463.802795,371.759216 
	C456.814301,382.698914 449.739563,393.584747 442.582001,404.414795 
	C438.475647,410.628052 431.803192,410.628601 427.692627,404.444214 
	C422.533142,396.681671 417.516357,388.824310 412.239471,380.704712 
z"/>
<path fill="#000000" opacity="1.000000" stroke="none" 
	d="
M572.567017,406.276031 
	C571.177246,408.729462 569.059570,408.830872 567.106323,408.819427 
	C554.622314,408.746368 542.123413,409.502777 529.657715,408.346588 
	C523.559143,407.781006 520.296143,404.942200 519.447510,398.695618 
	C518.075806,388.599274 518.883240,378.418396 519.023743,368.275299 
	C519.078918,364.298706 521.916199,363.588470 525.315002,363.675323 
	C528.847900,363.765686 530.417358,365.293365 530.367859,368.896118 
	C530.257874,376.889893 530.470642,384.889282 530.290161,392.880463 
	C530.206238,396.595886 531.687561,397.922852 535.286072,397.879822 
	C545.445496,397.758240 555.607178,397.794189 565.767883,397.822601 
	C572.429077,397.841248 573.634460,399.276978 572.567017,406.276031 
z"/>
<path fill="#000000" opacity="1.000000" stroke="none" 
	d="
M379.331543,463.976410 
	C379.330505,464.971100 379.364777,465.472656 379.324188,465.968048 
	C379.095947,468.752258 380.395477,472.053680 378.566528,474.209930 
	C376.434021,476.724060 373.411072,474.754120 370.727997,474.169922 
	C369.718414,473.950043 368.512543,474.717743 367.380127,474.960693 
	C362.285522,476.053619 357.194641,474.036011 354.434479,469.588531 
	C351.748871,465.261230 351.773407,460.717194 354.387482,456.385681 
	C357.007538,452.044220 362.372498,449.947968 367.340302,451.070862 
	C368.605743,451.356903 369.800323,452.034393 371.139252,451.654755 
	C372.057037,450.005219 371.698059,448.302277 371.656555,446.684875 
	C371.587219,443.979614 372.222290,442.146301 375.422363,442.136475 
	C378.494293,442.127045 379.416443,443.682068 379.360687,446.525421 
	C379.249969,452.175110 379.330627,457.828522 379.331543,463.976410 
M364.516388,468.245422 
	C367.688843,467.820068 369.826874,466.412567 369.741699,462.828247 
	C369.682159,460.322296 368.430969,458.713806 366.027771,458.205505 
	C363.094727,457.585144 360.571381,458.349487 359.692047,461.486420 
	C358.703949,465.011108 360.352448,467.228943 364.516388,468.245422 
z"/>
<path fill="#000000" opacity="1.000000" stroke="none" 
	d="
M333.146240,474.199432 
	C329.918610,470.876465 322.414520,469.878784 319.915192,472.751862 
	C317.157532,475.921906 314.169983,475.324890 309.470490,474.708466 
	C314.898895,464.506073 320.005341,454.908752 325.711700,444.183960 
	C332.019409,454.666412 336.947266,464.299133 342.004639,474.363007 
	C338.741638,475.602173 336.108215,475.713257 333.146240,474.199432 
z"/>
<path fill="#000000" opacity="1.000000" stroke="none" 
	d="
M270.832306,468.947571 
	C270.830811,466.987152 270.795593,465.487793 270.833252,463.990265 
	C270.922150,460.455139 269.380768,457.972656 265.759918,457.881226 
	C261.794159,457.781097 260.327454,460.492767 260.321472,464.160522 
	C260.318207,466.158539 260.311584,468.156525 260.303986,470.154541 
	C260.294281,472.720123 260.463959,475.241455 256.641113,475.282471 
	C253.014252,475.321350 252.669098,473.182739 252.689499,470.404663 
	C252.740845,463.411926 252.804474,456.416687 252.665741,449.426361 
	C252.602417,446.236572 253.425552,444.363220 257.025543,444.341187 
	C260.746704,444.318390 260.222382,446.855591 260.306793,449.156433 
	C260.336060,449.953979 260.497223,450.746735 260.599915,451.555664 
	C272.975891,449.263702 278.187866,453.690186 278.180542,466.233795 
	C278.179565,467.898773 278.182617,469.564209 278.145233,471.228577 
	C278.096100,473.416504 277.582550,475.148621 274.838623,475.242615 
	C272.077057,475.337250 270.822845,474.105377 270.859589,471.407104 
	C270.868652,470.741455 270.841949,470.075378 270.832306,468.947571 
z"/>
<path fill="#000000" opacity="1.000000" stroke="none" 
	d="
M199.220276,467.415710 
	C203.709000,469.338074 201.049438,471.088684 199.403107,472.527740 
	C194.332230,476.960144 186.199615,475.923340 182.165970,470.454956 
	C177.655869,464.340637 179.056564,456.441925 185.318344,452.678009 
	C191.694244,448.845520 199.607788,451.041565 202.751709,457.515808 
	C205.818970,463.832184 204.466888,465.869110 197.532761,465.574646 
	C194.439789,465.443298 191.336609,465.552429 187.429565,465.552429 
	C189.763412,468.215546 191.646866,469.110199 194.110687,467.711884 
	C195.654846,466.835480 197.204224,466.558868 199.220276,467.415710 
z"/>
<path fill="#000000" opacity="1.000000" stroke="none" 
	d="
M455.812439,457.141174 
	C458.889343,449.606873 468.048798,447.594849 473.403046,452.890106 
	C476.628693,456.080200 476.054108,458.812897 471.829132,460.375946 
	C476.763885,465.851105 477.252441,469.895508 473.370819,473.138214 
	C469.170990,476.646759 460.821411,475.876251 457.571899,471.495087 
	C455.702942,468.975311 454.014221,466.155121 458.678528,464.376251 
	C457.476929,462.045471 455.357300,460.296234 455.812439,457.141174 
M467.650391,468.054138 
	C466.813202,465.023560 464.685547,465.937469 462.325104,466.062134 
	C463.368347,468.963745 465.202118,468.856781 467.650391,468.054138 
z"/>
<path fill="#000000" opacity="1.000000" stroke="none" 
	d="
M145.920288,447.266602 
	C146.538345,444.198395 148.743988,444.196655 150.680176,444.146973 
	C155.662872,444.019073 160.650543,444.092621 165.636169,444.070374 
	C168.164597,444.059113 169.710236,444.884491 169.666672,447.818268 
	C169.628281,450.403290 169.490982,452.594482 166.067383,452.324402 
	C162.908463,452.075226 162.090027,453.803162 162.157288,456.614838 
	C162.264603,461.099731 162.147690,465.589478 162.178635,470.076843 
	C162.198685,472.985321 161.885544,475.299805 157.992142,475.332031 
	C154.202042,475.363373 153.615555,473.321777 153.671829,470.264313 
	C153.757446,465.612213 153.610306,460.955750 153.702805,456.303925 
	C153.755432,453.656647 152.883545,452.129059 150.006302,452.341705 
	C146.607712,452.592896 145.625046,450.696381 145.920288,447.266602 
z"/>
<path fill="#000000" opacity="1.000000" stroke="none" 
	d="
M508.950012,473.267944 
	C500.691467,476.947388 493.632996,474.490479 490.934570,467.301605 
	C488.387970,460.517212 492.096680,453.234955 499.152863,451.164520 
	C504.455963,449.608490 510.439972,452.167145 513.159607,457.153625 
	C516.062561,462.476196 514.607544,468.478333 508.950012,473.267944 
M498.178589,459.895599 
	C496.573334,463.191345 496.606323,466.157593 500.502472,467.617523 
	C503.058502,468.575287 505.491516,467.827972 506.968628,465.322754 
	C508.226898,463.188660 507.780060,461.066315 506.124451,459.377594 
	C503.729187,456.934418 501.154083,457.058899 498.178589,459.895599 
z"/>
<path fill="#000000" opacity="1.000000" stroke="none" 
	d="
M400.089996,464.790833 
	C398.098022,460.215637 395.442230,456.336212 394.113983,451.532501 
	C404.448639,447.574799 403.386017,458.224030 407.754211,461.874725 
	C412.139099,458.420502 410.406982,447.454437 420.975220,451.438049 
	C420.486359,455.605865 417.909424,458.977753 416.323273,462.708649 
	C414.892944,466.072937 413.362366,469.407928 411.647675,472.634491 
	C409.714081,476.272919 405.927795,476.319122 403.946716,472.759338 
	C402.574890,470.294281 401.481873,467.674072 400.089996,464.790833 
z"/>
<path fill="#000000" opacity="1.000000" stroke="none" 
	d="
M218.199646,465.376892 
	C217.378082,459.243286 219.597260,454.895416 224.613235,452.161469 
	C229.128113,449.700623 233.491440,450.158417 237.649826,453.683807 
	C236.707733,456.766205 235.242859,458.622498 231.631332,457.928101 
	C227.813004,457.194000 225.460724,458.878296 225.264801,462.838562 
	C225.071365,466.748016 227.484634,468.046661 231.010330,467.933380 
	C231.836075,467.906860 232.709991,467.703918 233.478439,467.903259 
	C235.345169,468.387512 236.930740,469.599640 237.272018,471.454010 
	C237.672089,473.627960 235.542511,473.981110 234.062286,474.549194 
	C227.492310,477.070648 221.279602,473.584839 218.199646,465.376892 
z"/>
<path fill="#000000" opacity="1.000000" stroke="none" 
	d="
M528.658447,465.956055 
	C528.665894,461.821320 528.791321,458.175049 528.645996,454.539612 
	C528.521057,451.413086 530.013733,450.356903 532.861877,450.695374 
	C535.294678,450.984467 537.669739,451.516052 540.154846,450.669586 
	C541.542358,450.197021 543.368042,450.176819 543.848328,452.088348 
	C544.324219,453.982880 544.870789,456.763611 542.692688,457.418610 
	C535.541870,459.569092 536.017639,465.064392 536.146362,470.606842 
	C536.203857,473.082458 535.901245,475.317108 532.525269,475.265472 
	C530.201050,475.229950 528.659668,474.564636 528.700439,471.910889 
	C528.728455,470.090973 528.675659,468.269836 528.658447,465.956055 
z"/>
<path fill="#000000" opacity="1.000000" stroke="none" 
	d="
M434.730469,474.215881 
	C433.283325,467.255920 434.019623,460.607758 433.994537,453.980011 
	C433.984589,451.355804 435.707825,450.707275 438.019928,450.749695 
	C440.318268,450.791901 441.317444,451.882629 441.310272,454.130432 
	C441.293274,459.451691 441.369385,464.773529 441.320343,470.094330 
	C441.270386,475.507965 440.775146,475.825836 434.730469,474.215881 
z"/>
<path fill="#000000" opacity="1.000000" stroke="none" 
	d="
M437.320129,442.291504 
	C440.129822,442.143890 441.385803,443.117767 441.314423,445.708801 
	C441.257935,447.759888 440.262482,448.724518 438.354614,448.882050 
	C436.459106,449.038574 434.612885,448.881897 434.115875,446.564728 
	C433.626282,444.282104 434.392639,442.690643 437.320129,442.291504 
z"/>
</svg>