<svg version="1.1" id="Layer_1" xmlns="http://www.w3.org/2000/svg" xmlns:xlink="http://www.w3.org/1999/xlink" x="0px" y="0px"
	 width="100%" viewBox="0 0 2090 170" enable-background="new 0 0 2090 170" xml:space="preserve">
<path fill="#FBFBFD" opacity="1.000000" stroke="none" 
	d="
M1587.000000,171.000000 
	C1058.000000,171.000000 529.500000,171.000000 1.000000,171.000000 
	C1.000000,114.333336 1.000000,57.666668 1.000000,1.000000 
	C697.666687,1.000000 1394.333374,1.000000 2091.000000,1.000000 
	C2091.000000,57.666668 2091.000000,114.333336 2091.000000,171.000000 
	C1923.166626,171.000000 1755.333374,171.000000 1587.000000,171.000000 
M865.701538,105.304611 
	C864.350403,106.720695 862.999329,108.136787 860.846436,110.393211 
	C857.278381,106.496994 853.401428,103.267372 850.770020,99.226646 
	C833.997131,73.470901 817.361389,47.623016 800.971313,21.622133 
	C793.434448,9.665710 782.292603,5.860565 769.121033,6.254084 
	C763.463745,6.423103 759.035522,9.371872 756.477600,14.584190 
	C754.055115,19.520575 756.520630,23.474072 759.184265,27.462122 
	C770.806274,44.862988 782.406921,62.278793 793.898193,79.766129 
	C808.134705,101.431030 822.042786,123.314735 836.493408,144.834854 
	C847.947266,161.892014 867.779846,163.641449 881.902527,148.876495 
	C886.642639,143.920837 890.261353,137.848984 894.123352,132.106232 
	C901.558289,121.050606 908.801270,109.865868 916.342407,98.402428 
	C917.627991,100.273834 918.576843,101.627510 919.497864,102.999840 
	C929.050354,117.233635 938.170349,131.782074 948.252991,145.629684 
	C961.677490,164.067062 984.579956,163.145950 997.168823,144.004898 
	C1011.229431,122.626091 1024.959717,101.030212 1038.972656,79.619751 
	C1050.733398,61.650478 1062.694336,43.812267 1074.565552,25.915247 
	C1079.979858,17.752277 1076.798706,9.146628 1067.580688,7.013376 
	C1052.429810,3.507111 1040.693237,8.258721 1032.411133,21.116581 
	C1019.630554,40.958359 1006.757141,60.740292 993.990051,80.590721 
	C989.529724,87.525810 985.356628,94.645737 980.892029,101.577957 
	C975.514038,109.928154 972.371887,110.338791 965.755371,103.398880 
	C961.403320,98.834106 957.235229,94.068924 953.279846,89.155869 
	C942.847412,76.197220 942.089661,62.261353 949.906799,47.836597 
	C954.546753,39.274830 959.810059,31.049753 964.411011,22.468435 
	C968.017944,15.741067 965.887024,10.979981 958.799622,8.476585 
	C944.630127,3.471671 931.631775,7.018738 921.025085,18.784712 
	C916.798889,23.472792 915.728333,23.548473 911.118103,19.090420 
	C908.742493,16.793245 906.861267,13.856454 904.202393,12.004498 
	C896.112915,6.370274 886.831787,5.920122 877.440308,7.054004 
	C868.080811,8.184017 864.386780,15.829733 869.047424,24.067192 
	C870.026245,25.797276 871.326111,27.342777 872.363464,29.043196 
	C878.320251,38.807751 884.323242,48.545753 890.135498,58.396076 
	C892.343506,62.138130 891.926819,65.961113 889.475464,69.637527 
	C881.681763,81.326210 873.963318,93.065147 865.701538,105.304611 
M666.500000,160.485718 
	C680.265198,159.660934 694.119019,159.548737 707.775269,157.848709 
	C729.690552,155.120544 741.111328,144.040558 741.654602,124.364502 
	C742.393860,97.588066 742.363892,70.768105 741.706421,43.990314 
	C741.531799,36.877777 739.040283,29.186790 735.532227,22.927217 
	C728.780273,10.879090 716.636230,7.394665 703.654175,7.236153 
	C676.694641,6.906974 649.730652,6.865062 622.768494,6.873304 
	C610.787415,6.876966 598.755432,6.678429 586.838867,7.674838 
	C573.113464,8.822486 561.721619,14.899981 556.977173,28.686527 
	C554.877075,34.789371 554.928589,41.711540 554.492615,48.294182 
	C552.854980,73.021370 551.391113,97.756363 554.015930,122.522102 
	C555.490723,136.437775 559.818237,148.713272 573.993103,154.315506 
	C580.051636,156.709976 586.704529,158.557205 593.161133,158.816696 
	C617.257446,159.785126 641.384399,159.992737 666.500000,160.485718 
M1997.500000,122.000648 
	C1976.425049,122.000648 1955.350220,122.000648 1933.283447,122.000648 
	C1935.562012,119.212357 1937.049805,116.797699 1939.085938,115.006371 
	C1946.552490,108.437721 1953.966919,101.773163 1961.827026,95.695747 
	C1982.514648,79.700439 2003.501831,64.092499 2024.181641,48.087276 
	C2028.163086,45.005867 2032.966064,41.366714 2034.393066,37.004452 
	C2036.270996,31.263439 2035.693359,24.514528 2035.228271,18.269224 
	C2034.762695,12.015173 2031.332520,8.740401 2025.056763,7.806735 
	C2020.482178,7.126133 2015.780029,7.135690 2011.134277,7.127566 
	C1966.988525,7.050372 1922.842773,6.991522 1878.697266,7.056151 
	C1873.011475,7.064475 1868.236938,9.471122 1866.016357,15.070916 
	C1860.561523,28.827124 1862.850952,42.707222 1882.895874,42.830204 
	C1883.895386,42.836338 1884.895020,42.831131 1885.894531,42.831131 
	C1913.209839,42.831139 1940.525146,42.831139 1967.840454,42.831139 
	C1969.550049,42.831139 1971.259521,42.831139 1973.940063,42.831139 
	C1972.540894,44.336479 1972.078003,45.016857 1971.453857,45.480080 
	C1939.309814,69.333122 1907.263184,93.319847 1874.930786,116.915092 
	C1864.754395,124.341591 1861.848755,133.820038 1863.821289,145.613724 
	C1865.337158,154.676987 1869.163330,158.338531 1878.370850,158.792404 
	C1883.185059,159.029724 1888.020752,158.831299 1892.846680,158.831268 
	C1934.661987,158.830994 1976.477417,158.849106 2018.292725,158.820267 
	C2031.040894,158.811478 2035.553467,154.870468 2036.668701,143.023453 
	C2037.859131,130.377640 2031.234375,122.691170 2018.483032,122.203888 
	C2011.829102,121.949608 2005.161499,122.056747 1997.500000,122.000648 
M1235.835327,37.500534 
	C1235.884521,55.976009 1235.942383,74.451469 1235.976807,92.926971 
	C1235.984985,97.322418 1234.687378,101.023674 1230.303955,103.100464 
	C1226.803101,99.908691 1223.346558,96.800232 1219.936401,93.641518 
	C1191.511353,67.312027 1163.009766,41.064022 1134.735962,14.572996 
	C1127.722534,8.001755 1119.694946,5.819150 1110.527954,6.612374 
	C1107.057251,6.912695 1103.600220,7.510087 1100.175171,8.170285 
	C1093.682983,9.421727 1090.913696,12.441360 1090.883423,19.034361 
	C1090.695435,60.018253 1090.529907,101.002800 1090.579712,141.986862 
	C1090.593262,153.145035 1094.390747,157.600418 1104.060425,158.747787 
	C1107.483887,159.154022 1111.074463,159.025375 1114.485962,158.488113 
	C1123.039551,157.141037 1126.691528,153.089874 1126.920166,144.515808 
	C1127.545410,121.075264 1127.971191,97.629425 1128.492676,74.186058 
	C1128.592285,69.708931 1128.871216,65.276314 1133.376221,62.174408 
	C1164.851807,91.374954 1196.332886,120.270927 1227.411621,149.593399 
	C1237.298218,158.921249 1248.349365,160.886612 1260.959229,158.319473 
	C1271.948486,156.082275 1274.827026,152.575165 1274.828369,141.290649 
	C1274.832642,103.129234 1274.834717,64.967819 1274.816284,26.806402 
	C1274.815308,24.815426 1274.687012,22.817862 1274.498047,20.834787 
	C1273.734863,12.824260 1270.166870,8.508525 1262.364502,7.391451 
	C1257.803955,6.738512 1253.020752,6.750092 1248.442261,7.312825 
	C1240.615845,8.274746 1236.431152,13.110381 1236.031616,21.011900 
	C1235.771118,26.165049 1235.887695,31.337259 1235.835327,37.500534 
M143.785721,30.397390 
	C142.870575,34.076794 141.192032,37.749935 141.161789,41.436600 
	C140.932571,69.374840 140.396576,97.335197 141.259979,125.248329 
	C141.762741,141.501160 152.535309,155.987457 171.278854,157.221573 
	C188.194382,158.335358 205.068039,160.269165 221.996185,160.964630 
	C248.306534,162.045593 274.568634,160.594589 300.705872,157.349426 
	C312.307495,155.908981 321.394867,150.947968 325.970154,139.273819 
	C330.472961,127.784607 327.464539,122.915741 315.005554,122.846268 
	C289.353699,122.703232 263.701508,122.565880 238.049347,122.536018 
	C224.062042,122.519737 210.074066,122.847694 196.087143,122.799767 
	C183.549194,122.756813 178.861435,117.977821 178.837540,105.623604 
	C178.806656,89.658752 178.801590,73.693726 178.840591,57.728912 
	C178.864655,47.876377 182.708099,43.416332 192.330719,42.910873 
	C199.958511,42.510197 207.624176,42.819717 215.272995,42.831615 
	C248.747192,42.883701 282.221466,42.981213 315.695496,42.930210 
	C318.619995,42.925758 321.612335,42.187183 324.430969,41.324856 
	C325.483276,41.002907 327.039032,39.071705 326.817322,38.349289 
	C324.854309,31.952341 323.602478,24.988276 320.103088,19.488022 
	C313.814667,9.604034 302.930450,7.228581 292.119598,7.134185 
	C254.801620,6.808338 217.475311,6.697534 180.160019,7.151003 
	C164.010559,7.347257 150.869705,13.919282 143.785721,30.397390 
M528.816956,95.040199 
	C533.012939,76.082359 532.384460,57.092587 528.798706,38.169231 
	C525.721619,21.930328 516.641052,11.109015 499.699127,8.448127 
	C493.812714,7.523607 487.775452,7.248618 481.804718,7.222612 
	C444.998566,7.062301 408.191772,7.052229 371.385193,7.004757 
	C357.774261,6.987202 353.900757,10.377371 352.223511,23.695925 
	C350.542938,37.041027 354.551880,42.849049 366.195038,42.935242 
	C387.346985,43.091831 408.501587,42.864586 429.655060,42.855751 
	C445.978180,42.848934 462.306213,42.707729 478.622589,43.061924 
	C487.665558,43.258224 491.408600,47.373619 492.179016,56.309258 
	C492.450409,59.457142 492.925201,62.589233 493.140442,65.739922 
	C494.043854,78.964668 488.524902,84.830803 475.240723,84.834213 
	C453.596619,84.839760 431.952545,84.835709 410.429291,84.835709 
	C408.076263,89.644905 408.898926,93.368439 412.468109,96.819626 
	C429.219208,113.016922 445.903748,129.283203 462.583893,145.553711 
	C469.655121,152.451279 476.814087,158.782440 487.518799,159.613602 
	C497.949158,160.423477 508.102661,159.848297 518.068359,156.709824 
	C520.208435,156.035843 522.204590,154.905197 524.765137,153.762695 
	C516.835205,141.338287 502.496277,134.851517 497.457886,120.792206 
	C518.936829,113.056526 522.928467,109.843536 528.816956,95.040199 
M1432.584839,121.094841 
	C1434.846680,117.613853 1437.096313,114.124931 1439.372070,110.653130 
	C1457.860840,82.446777 1476.373901,54.256348 1494.832764,26.030483 
	C1499.363159,19.102728 1497.924194,12.733650 1491.082153,8.554049 
	C1481.971436,2.988632 1462.293457,7.176889 1456.473389,16.085262 
	C1440.477783,40.568581 1424.558105,65.101501 1408.642212,89.636719 
	C1405.573853,94.366745 1403.060181,99.513268 1399.585449,103.910606 
	C1393.439087,111.689224 1390.738525,110.881310 1385.511719,104.114265 
	C1383.101929,100.994530 1381.242432,97.452110 1379.103271,94.120567 
	C1364.216064,70.934464 1349.051147,47.920597 1334.534058,24.505112 
	C1326.438843,11.447657 1315.780762,4.940102 1300.247192,7.035351 
	C1286.317505,8.914282 1283.436035,15.385935 1291.229614,27.279463 
	C1300.353271,41.202816 1309.267212,55.263271 1318.339844,69.220276 
	C1334.890625,94.681709 1351.192261,120.312401 1368.169922,145.486603 
	C1380.754639,164.146805 1402.128662,164.878845 1415.061523,147.456253 
	C1421.197632,139.190079 1426.473022,130.285019 1432.584839,121.094841 
M1457.790405,156.981384 
	C1464.317505,160.891129 1471.286987,159.222916 1478.196411,158.674515 
	C1484.963867,158.137390 1490.167847,155.145248 1493.884155,149.456223 
	C1497.787231,143.481110 1501.850952,137.609970 1505.701416,131.601669 
	C1520.663208,108.254990 1535.564575,84.869499 1550.498779,61.505108 
	C1552.708252,58.048412 1555.562866,55.558334 1560.078491,55.198494 
	C1579.074463,84.622597 1598.066284,113.811874 1616.797241,143.167465 
	C1624.158081,154.703522 1633.719482,160.863174 1647.883667,159.075882 
	C1662.138916,157.277100 1665.841797,150.123474 1658.091431,138.143158 
	C1642.490967,114.028770 1626.814087,89.963730 1611.159668,65.884285 
	C1601.081177,50.381489 1591.345093,34.638935 1580.767822,19.483698 
	C1574.109863,9.943834 1564.997803,3.328579 1552.390137,6.202013 
	C1542.798584,8.388073 1536.273315,15.249425 1531.078979,23.173294 
	C1505.399902,62.345699 1479.836914,101.594215 1454.262695,140.835266 
	C1450.428833,146.717941 1451.321411,151.263931 1457.790405,156.981384 
M1675.164307,111.124725 
	C1675.623535,115.423386 1675.963745,119.738686 1676.562256,124.017876 
	C1679.527832,145.218674 1688.912231,155.055313 1709.828857,157.029831 
	C1726.848267,158.636459 1743.984497,159.527725 1761.079102,159.693054 
	C1786.708618,159.940948 1812.346680,159.103714 1837.981689,159.074356 
	C1849.884644,159.060715 1857.107300,154.908218 1856.874268,140.138611 
	C1856.703491,129.319153 1853.928589,124.744347 1845.549927,123.057777 
	C1842.963379,122.537163 1840.290405,122.212585 1837.655518,122.203293 
	C1807.004395,122.095146 1776.353027,122.064514 1745.701660,122.013496 
	C1739.043701,122.002411 1732.373657,122.237732 1725.730957,121.913788 
	C1718.689941,121.570419 1714.902832,117.920410 1713.707520,110.962227 
	C1713.343750,108.844688 1713.181885,106.665672 1713.187744,104.515503 
	C1713.259033,78.203278 1713.411987,51.891243 1713.461670,25.579002 
	C1713.473755,19.174944 1713.271484,12.121019 1706.470459,9.324336 
	C1701.640381,7.338133 1695.828735,7.001356 1690.489258,7.150190 
	C1680.314087,7.433813 1675.307861,12.648249 1675.236084,22.879946 
	C1675.031982,51.983265 1675.127075,81.088692 1675.164307,111.124725 
z"/>
<path fill="#222222" opacity="1.000000" stroke="none" 
	d="
M865.958679,105.044632 
	C873.963318,93.065147 881.681763,81.326210 889.475464,69.637527 
	C891.926819,65.961113 892.343506,62.138130 890.135498,58.396076 
	C884.323242,48.545753 878.320251,38.807751 872.363464,29.043196 
	C871.326111,27.342777 870.026245,25.797276 869.047424,24.067192 
	C864.386780,15.829733 868.080811,8.184017 877.440308,7.054004 
	C886.831787,5.920122 896.112915,6.370274 904.202393,12.004498 
	C906.861267,13.856454 908.742493,16.793245 911.118103,19.090420 
	C915.728333,23.548473 916.798889,23.472792 921.025085,18.784712 
	C931.631775,7.018738 944.630127,3.471671 958.799622,8.476585 
	C965.887024,10.979981 968.017944,15.741067 964.411011,22.468435 
	C959.810059,31.049753 954.546753,39.274830 949.906799,47.836597 
	C942.089661,62.261353 942.847412,76.197220 953.279846,89.155869 
	C957.235229,94.068924 961.403320,98.834106 965.755371,103.398880 
	C972.371887,110.338791 975.514038,109.928154 980.892029,101.577957 
	C985.356628,94.645737 989.529724,87.525810 993.990051,80.590721 
	C1006.757141,60.740292 1019.630554,40.958359 1032.411133,21.116581 
	C1040.693237,8.258721 1052.429810,3.507111 1067.580688,7.013376 
	C1076.798706,9.146628 1079.979858,17.752277 1074.565552,25.915247 
	C1062.694336,43.812267 1050.733398,61.650478 1038.972656,79.619751 
	C1024.959717,101.030212 1011.229431,122.626091 997.168823,144.004898 
	C984.579956,163.145950 961.677490,164.067062 948.252991,145.629684 
	C938.170349,131.782074 929.050354,117.233635 919.497864,102.999840 
	C918.576843,101.627510 917.627991,100.273834 916.342407,98.402428 
	C908.801270,109.865868 901.558289,121.050606 894.123352,132.106232 
	C890.261353,137.848984 886.642639,143.920837 881.902527,148.876495 
	C867.779846,163.641449 847.947266,161.892014 836.493408,144.834854 
	C822.042786,123.314735 808.134705,101.431030 793.898193,79.766129 
	C782.406921,62.278793 770.806274,44.862988 759.184265,27.462122 
	C756.520630,23.474072 754.055115,19.520575 756.477600,14.584190 
	C759.035522,9.371872 763.463745,6.423103 769.121033,6.254084 
	C782.292603,5.860565 793.434448,9.665710 800.971313,21.622133 
	C817.361389,47.623016 833.997131,73.470901 850.770020,99.226646 
	C853.401428,103.267372 857.278381,106.496994 860.846436,110.393211 
	C862.999329,108.136787 864.350403,106.720695 865.958679,105.044632 
z"/>
<path fill="#222222" opacity="1.000000" stroke="none" 
	d="
M665.999878,160.485748 
	C641.384399,159.992737 617.257446,159.785126 593.161133,158.816696 
	C586.704529,158.557205 580.051636,156.709976 573.993103,154.315506 
	C559.818237,148.713272 555.490723,136.437775 554.015930,122.522102 
	C551.391113,97.756363 552.854980,73.021370 554.492615,48.294182 
	C554.928589,41.711540 554.877075,34.789371 556.977173,28.686527 
	C561.721619,14.899981 573.113464,8.822486 586.838867,7.674838 
	C598.755432,6.678429 610.787415,6.876966 622.768494,6.873304 
	C649.730652,6.865062 676.694641,6.906974 703.654175,7.236153 
	C716.636230,7.394665 728.780273,10.879090 735.532227,22.927217 
	C739.040283,29.186790 741.531799,36.877777 741.706421,43.990314 
	C742.363892,70.768105 742.393860,97.588066 741.654602,124.364502 
	C741.111328,144.040558 729.690552,155.120544 707.775269,157.848709 
	C694.119019,159.548737 680.265198,159.660934 665.999878,160.485748 
M671.500000,42.829571 
	C650.182922,42.829575 628.865906,42.824249 607.548828,42.838337 
	C605.553284,42.839653 603.542725,42.830933 601.565125,43.055309 
	C595.440125,43.750233 591.074341,47.480118 590.965942,53.586166 
	C590.629395,72.548729 590.546082,91.525383 590.911377,110.486038 
	C591.054932,117.935432 596.285095,121.929512 603.775146,122.009712 
	C627.735718,122.266289 651.695557,122.617828 675.656677,122.794754 
	C681.961243,122.841309 688.330383,122.851936 694.558594,122.032852 
	C700.519165,121.248978 703.736633,117.474899 703.806946,111.487274 
	C704.027832,92.673225 704.126343,73.851814 703.825623,55.040394 
	C703.699402,47.145554 698.843506,42.986382 690.985535,42.851517 
	C684.825378,42.745792 678.661987,42.829830 671.500000,42.829571 
z"/>
<path fill="#222222" opacity="1.000000" stroke="none" 
	d="
M1998.000000,122.000648 
	C2005.161499,122.056747 2011.829102,121.949608 2018.483032,122.203888 
	C2031.234375,122.691170 2037.859131,130.377640 2036.668701,143.023453 
	C2035.553467,154.870468 2031.040894,158.811478 2018.292725,158.820267 
	C1976.477417,158.849106 1934.661987,158.830994 1892.846680,158.831268 
	C1888.020752,158.831299 1883.185059,159.029724 1878.370850,158.792404 
	C1869.163330,158.338531 1865.337158,154.676987 1863.821289,145.613724 
	C1861.848755,133.820038 1864.754395,124.341591 1874.930786,116.915092 
	C1907.263184,93.319847 1939.309814,69.333122 1971.453857,45.480080 
	C1972.078003,45.016857 1972.540894,44.336479 1973.940063,42.831139 
	C1971.259521,42.831139 1969.550049,42.831139 1967.840454,42.831139 
	C1940.525146,42.831139 1913.209839,42.831139 1885.894531,42.831131 
	C1884.895020,42.831131 1883.895386,42.836338 1882.895874,42.830204 
	C1862.850952,42.707222 1860.561523,28.827124 1866.016357,15.070916 
	C1868.236938,9.471122 1873.011475,7.064475 1878.697266,7.056151 
	C1922.842773,6.991522 1966.988525,7.050372 2011.134277,7.127566 
	C2015.780029,7.135690 2020.482178,7.126133 2025.056763,7.806735 
	C2031.332520,8.740401 2034.762695,12.015173 2035.228271,18.269224 
	C2035.693359,24.514528 2036.270996,31.263439 2034.393066,37.004452 
	C2032.966064,41.366714 2028.163086,45.005867 2024.181641,48.087276 
	C2003.501831,64.092499 1982.514648,79.700439 1961.827026,95.695747 
	C1953.966919,101.773163 1946.552490,108.437721 1939.085938,115.006371 
	C1937.049805,116.797699 1935.562012,119.212357 1933.283447,122.000648 
	C1955.350220,122.000648 1976.425049,122.000648 1998.000000,122.000648 
z"/>
<path fill="#222222" opacity="1.000000" stroke="none" 
	d="
M1235.835327,37.000732 
	C1235.887695,31.337259 1235.771118,26.165049 1236.031616,21.011900 
	C1236.431152,13.110381 1240.615845,8.274746 1248.442261,7.312825 
	C1253.020752,6.750092 1257.803955,6.738512 1262.364502,7.391451 
	C1270.166870,8.508525 1273.734863,12.824260 1274.498047,20.834787 
	C1274.687012,22.817862 1274.815308,24.815426 1274.816284,26.806402 
	C1274.834717,64.967819 1274.832642,103.129234 1274.828369,141.290649 
	C1274.827026,152.575165 1271.948486,156.082275 1260.959229,158.319473 
	C1248.349365,160.886612 1237.298218,158.921249 1227.411621,149.593399 
	C1196.332886,120.270927 1164.851807,91.374954 1133.376221,62.174408 
	C1128.871216,65.276314 1128.592285,69.708931 1128.492676,74.186058 
	C1127.971191,97.629425 1127.545410,121.075264 1126.920166,144.515808 
	C1126.691528,153.089874 1123.039551,157.141037 1114.485962,158.488113 
	C1111.074463,159.025375 1107.483887,159.154022 1104.060425,158.747787 
	C1094.390747,157.600418 1090.593262,153.145035 1090.579712,141.986862 
	C1090.529907,101.002800 1090.695435,60.018253 1090.883423,19.034361 
	C1090.913696,12.441360 1093.682983,9.421727 1100.175171,8.170285 
	C1103.600220,7.510087 1107.057251,6.912695 1110.527954,6.612374 
	C1119.694946,5.819150 1127.722534,8.001755 1134.735962,14.572996 
	C1163.009766,41.064022 1191.511353,67.312027 1219.936401,93.641518 
	C1223.346558,96.800232 1226.803101,99.908691 1230.303955,103.100464 
	C1234.687378,101.023674 1235.984985,97.322418 1235.976807,92.926971 
	C1235.942383,74.451469 1235.884521,55.976009 1235.835327,37.000732 
z"/>
<path fill="#222222" opacity="1.000000" stroke="none" 
	d="
M143.819672,30.009438 
	C150.869705,13.919282 164.010559,7.347257 180.160019,7.151003 
	C217.475311,6.697534 254.801620,6.808338 292.119598,7.134185 
	C302.930450,7.228581 313.814667,9.604034 320.103088,19.488022 
	C323.602478,24.988276 324.854309,31.952341 326.817322,38.349289 
	C327.039032,39.071705 325.483276,41.002907 324.430969,41.324856 
	C321.612335,42.187183 318.619995,42.925758 315.695496,42.930210 
	C282.221466,42.981213 248.747192,42.883701 215.272995,42.831615 
	C207.624176,42.819717 199.958511,42.510197 192.330719,42.910873 
	C182.708099,43.416332 178.864655,47.876377 178.840591,57.728912 
	C178.801590,73.693726 178.806656,89.658752 178.837540,105.623604 
	C178.861435,117.977821 183.549194,122.756813 196.087143,122.799767 
	C210.074066,122.847694 224.062042,122.519737 238.049347,122.536018 
	C263.701508,122.565880 289.353699,122.703232 315.005554,122.846268 
	C327.464539,122.915741 330.472961,127.784607 325.970154,139.273819 
	C321.394867,150.947968 312.307495,155.908981 300.705872,157.349426 
	C274.568634,160.594589 248.306534,162.045593 221.996185,160.964630 
	C205.068039,160.269165 188.194382,158.335358 171.278854,157.221573 
	C152.535309,155.987457 141.762741,141.501160 141.259979,125.248329 
	C140.396576,97.335197 140.932571,69.374840 141.161789,41.436600 
	C141.192032,37.749935 142.870575,34.076794 143.819672,30.009438 
z"/>
<path fill="#222222" opacity="1.000000" stroke="none" 
	d="
M528.711060,95.426865 
	C522.928467,109.843536 518.936829,113.056526 497.457886,120.792206 
	C502.496277,134.851517 516.835205,141.338287 524.765137,153.762695 
	C522.204590,154.905197 520.208435,156.035843 518.068359,156.709824 
	C508.102661,159.848297 497.949158,160.423477 487.518799,159.613602 
	C476.814087,158.782440 469.655121,152.451279 462.583893,145.553711 
	C445.903748,129.283203 429.219208,113.016922 412.468109,96.819626 
	C408.898926,93.368439 408.076263,89.644905 410.429291,84.835709 
	C431.952545,84.835709 453.596619,84.839760 475.240723,84.834213 
	C488.524902,84.830803 494.043854,78.964668 493.140442,65.739922 
	C492.925201,62.589233 492.450409,59.457142 492.179016,56.309258 
	C491.408600,47.373619 487.665558,43.258224 478.622589,43.061924 
	C462.306213,42.707729 445.978180,42.848934 429.655060,42.855751 
	C408.501587,42.864586 387.346985,43.091831 366.195038,42.935242 
	C354.551880,42.849049 350.542938,37.041027 352.223511,23.695925 
	C353.900757,10.377371 357.774261,6.987202 371.385193,7.004757 
	C408.191772,7.052229 444.998566,7.062301 481.804718,7.222612 
	C487.775452,7.248618 493.812714,7.523607 499.699127,8.448127 
	C516.641052,11.109015 525.721619,21.930328 528.798706,38.169231 
	C532.384460,57.092587 533.012939,76.082359 528.711060,95.426865 
z"/>
<path fill="#222222" opacity="1.000000" stroke="none" 
	d="
M1432.361572,121.382111 
	C1426.473022,130.285019 1421.197632,139.190079 1415.061523,147.456253 
	C1402.128662,164.878845 1380.754639,164.146805 1368.169922,145.486603 
	C1351.192261,120.312401 1334.890625,94.681709 1318.339844,69.220276 
	C1309.267212,55.263271 1300.353271,41.202816 1291.229614,27.279463 
	C1283.436035,15.385935 1286.317505,8.914282 1300.247192,7.035351 
	C1315.780762,4.940102 1326.438843,11.447657 1334.534058,24.505112 
	C1349.051147,47.920597 1364.216064,70.934464 1379.103271,94.120567 
	C1381.242432,97.452110 1383.101929,100.994530 1385.511719,104.114265 
	C1390.738525,110.881310 1393.439087,111.689224 1399.585449,103.910606 
	C1403.060181,99.513268 1405.573853,94.366745 1408.642212,89.636719 
	C1424.558105,65.101501 1440.477783,40.568581 1456.473389,16.085262 
	C1462.293457,7.176889 1481.971436,2.988632 1491.082153,8.554049 
	C1497.924194,12.733650 1499.363159,19.102728 1494.832764,26.030483 
	C1476.373901,54.256348 1457.860840,82.446777 1439.372070,110.653130 
	C1437.096313,114.124931 1434.846680,117.613853 1432.361572,121.382111 
z"/>
<path fill="#222222" opacity="1.000000" stroke="none" 
	d="
M1457.456299,156.784790 
	C1451.321411,151.263931 1450.428833,146.717941 1454.262695,140.835266 
	C1479.836914,101.594215 1505.399902,62.345699 1531.078979,23.173294 
	C1536.273315,15.249425 1542.798584,8.388073 1552.390137,6.202013 
	C1564.997803,3.328579 1574.109863,9.943834 1580.767822,19.483698 
	C1591.345093,34.638935 1601.081177,50.381489 1611.159668,65.884285 
	C1626.814087,89.963730 1642.490967,114.028770 1658.091431,138.143158 
	C1665.841797,150.123474 1662.138916,157.277100 1647.883667,159.075882 
	C1633.719482,160.863174 1624.158081,154.703522 1616.797241,143.167465 
	C1598.066284,113.811874 1579.074463,84.622597 1560.078491,55.198494 
	C1555.562866,55.558334 1552.708252,58.048412 1550.498779,61.505108 
	C1535.564575,84.869499 1520.663208,108.254990 1505.701416,131.601669 
	C1501.850952,137.609970 1497.787231,143.481110 1493.884155,149.456223 
	C1490.167847,155.145248 1484.963867,158.137390 1478.196411,158.674515 
	C1471.286987,159.222916 1464.317505,160.891129 1457.456299,156.784790 
z"/>
<path fill="#222222" opacity="1.000000" stroke="none" 
	d="
M1675.134277,110.659004 
	C1675.127075,81.088692 1675.031982,51.983265 1675.236084,22.879946 
	C1675.307861,12.648249 1680.314087,7.433813 1690.489258,7.150190 
	C1695.828735,7.001356 1701.640381,7.338133 1706.470459,9.324336 
	C1713.271484,12.121019 1713.473755,19.174944 1713.461670,25.579002 
	C1713.411987,51.891243 1713.259033,78.203278 1713.187744,104.515503 
	C1713.181885,106.665672 1713.343750,108.844688 1713.707520,110.962227 
	C1714.902832,117.920410 1718.689941,121.570419 1725.730957,121.913788 
	C1732.373657,122.237732 1739.043701,122.002411 1745.701660,122.013496 
	C1776.353027,122.064514 1807.004395,122.095146 1837.655518,122.203293 
	C1840.290405,122.212585 1842.963379,122.537163 1845.549927,123.057777 
	C1853.928589,124.744347 1856.703491,129.319153 1856.874268,140.138611 
	C1857.107300,154.908218 1849.884644,159.060715 1837.981689,159.074356 
	C1812.346680,159.103714 1786.708618,159.940948 1761.079102,159.693054 
	C1743.984497,159.527725 1726.848267,158.636459 1709.828857,157.029831 
	C1688.912231,155.055313 1679.527832,145.218674 1676.562256,124.017876 
	C1675.963745,119.738686 1675.623535,115.423386 1675.134277,110.659004 
z"/>
<path fill="#FBFBFD" opacity="1.000000" stroke="none" 
	d="
M672.000000,42.829567 
	C678.661987,42.829830 684.825378,42.745792 690.985535,42.851517 
	C698.843506,42.986382 703.699402,47.145554 703.825623,55.040394 
	C704.126343,73.851814 704.027832,92.673225 703.806946,111.487274 
	C703.736633,117.474899 700.519165,121.248978 694.558594,122.032852 
	C688.330383,122.851936 681.961243,122.841309 675.656677,122.794754 
	C651.695557,122.617828 627.735718,122.266289 603.775146,122.009712 
	C596.285095,121.929512 591.054932,117.935432 590.911377,110.486038 
	C590.546082,91.525383 590.629395,72.548729 590.965942,53.586166 
	C591.074341,47.480118 595.440125,43.750233 601.565125,43.055309 
	C603.542725,42.830933 605.553284,42.839653 607.548828,42.838337 
	C628.865906,42.824249 650.182922,42.829575 672.000000,42.829567 
z"/>
</svg>